<svg xmlns="http://www.w3.org/2000/svg" viewBox="0 0 2440 410" role="img" aria-labelledby="title desc">
  <title id="title">ClimateMap UI diagram input side</title>
  <desc id="desc">Focused crop of the input-side portion of the ClimateMap UI component diagram.</desc>
  <defs>
    <style>
      .bg { fill: #f4f7fb; }
      .panel { fill: #ffffff; stroke: #d9e1ec; stroke-width: 2; rx: 28; }
      .panelTitle { font: 700 24px 'Segoe UI', Arial, sans-serif; fill: #1f2a44; }
      .componentUi { fill: #fff1ef; stroke: #e76f51; stroke-width: 2.5; rx: 18; }
      .componentViewport { fill: #e9fbf6; stroke: #1f9d84; stroke-width: 2.5; rx: 18; }
      .note { fill: #fff9e7; stroke: #e2b84a; stroke-width: 2; rx: 18; }
      .labelBg { fill: rgba(255, 255, 255, 0.95); stroke: #d9e1ec; stroke-width: 1.2; rx: 12; }
      .name { font: 700 16px 'Segoe UI', Arial, sans-serif; fill: #1f2940; }
      .small { font: 13px 'Segoe UI', Arial, sans-serif; fill: #617089; }
      .noteText { font: 14px 'Segoe UI', Arial, sans-serif; fill: #6b5521; }
      .step { font: 700 14px 'Segoe UI', Arial, sans-serif; fill: #3d4b63; }
      .arrowBlue { stroke: #355fa9; stroke-width: 3.5; fill: none; }
      .arrowGreen { stroke: #1f9d84; stroke-width: 3.5; fill: none; }
    </style>
    <marker id="arrowBlue" markerWidth="14" markerHeight="14" refX="11" refY="7" orient="auto">
      <path d="M0 0 L14 7 L0 14 z" fill="#355fa9"/>
    </marker>
    <marker id="arrowGreen" markerWidth="14" markerHeight="14" refX="11" refY="7" orient="auto">
      <path d="M0 0 L14 7 L0 14 z" fill="#1f9d84"/>
    </marker>
    <g id="icon-phone">
      <rect x="3" y="2" width="18" height="30" rx="5" fill="none" stroke="#5b8def" stroke-width="2"/>
      <rect x="8" y="6" width="8" height="1.8" rx="0.9" fill="#5b8def"/>
      <circle cx="12" cy="27" r="1.6" fill="#5b8def"/>
    </g>
    <g id="icon-map">
      <path d="M2 5l6-2 6 2 6-2v16l-6 2-6-2-6 2z" fill="none" stroke="#1f9d84" stroke-width="1.8" stroke-linejoin="round"/>
      <path d="M8 3v16M14 5v16" fill="none" stroke="#1f9d84" stroke-width="1.8" stroke-linecap="round"/>
    </g>
  </defs>

  <rect class="bg" x="0" y="0" width="2440" height="410"/>
  <g transform="translate(-60 -150)">
    <rect class="panel" x="60" y="150" width="2440" height="410"/>
    <text class="panelTitle" x="92" y="194">Input Side</text>

    <rect class="note" x="1910" y="174" width="544" height="54"/>
    <use href="#icon-phone" x="1934" y="184"/>
    <text class="noteText" x="1972" y="207">Phone icon marks mobile-only UI or a mobile-specific layout branch.</text>

    <rect class="componentUi" x="110" y="250" width="520" height="170"/>
    <text class="name" x="140" y="286">Header</text>
    <text class="small" x="140" y="314">Model selector + map mode selector</text>
    <text class="small" x="140" y="338">Reads and writes climate query state</text>
    <use href="#icon-phone" x="140" y="356"/>
    <text class="small" x="174" y="379">Owns a separate mobile layout inside the same component</text>

    <rect class="componentUi" x="690" y="250" width="820" height="190"/>
    <text class="name" x="720" y="286">BottomBar</text>
    <text class="small" x="720" y="314">Year / month selectors plus zoom, reset, locate, screenshot</text>
    <text class="small" x="720" y="338">Feeds date inputs and control callbacks back into ClimateMap</text>
    <text class="small" x="720" y="362">Desktop uses a wide control row; mobile stacks controls and carries the inline legend</text>
    <use href="#icon-phone" x="720" y="380"/>
    <text class="small" x="754" y="403">Explicit mobile layout branch inside BottomBar</text>

    <rect class="componentUi" x="1570" y="250" width="390" height="120"/>
    <use href="#icon-phone" x="1600" y="268"/>
    <text class="name" x="1642" y="294">MobileSideButtons</text>
    <text class="small" x="1642" y="318">Mobile-only floating actions for zoom, locate, info, screenshot</text>

    <rect class="componentViewport" x="1990" y="250" width="430" height="120"/>
    <use href="#icon-map" x="2020" y="272"/>
    <text class="name" x="2052" y="294">ViewportMonitor</text>
    <text class="small" x="2052" y="318">Pushes pan/zoom-derived bounds, zoom, and resolution</text>

    <path class="arrowBlue" marker-end="url(#arrowBlue)" d="M370 420 L1120 760"/>
    <rect class="labelBg" x="534" y="518" width="252" height="28"/>
    <text class="step" x="558" y="537">model + mode input path</text>

    <path class="arrowBlue" marker-end="url(#arrowBlue)" d="M1100 440 L1250 760"/>
    <rect class="labelBg" x="1084" y="560" width="214" height="28"/>
    <text class="step" x="1104" y="579">date + control callbacks</text>

    <path class="arrowBlue" marker-end="url(#arrowBlue)" d="M1764 370 L1450 760"/>
    <rect class="labelBg" x="1522" y="516" width="236" height="28"/>
    <text class="step" x="1546" y="535">mobile-only map actions</text>

    <path class="arrowGreen" marker-end="url(#arrowGreen)" d="M2206 370 L450 930"/>
    <rect class="labelBg" x="1674" y="634" width="326" height="28"/>
    <text class="step" x="1696" y="653">viewport writes bounds + zoom + resolution</text>
  </g>
</svg>
