<svg xmlns="http://www.w3.org/2000/svg" viewBox="0 150 2560 700" role="img" aria-labelledby="title desc">
  <title id="title">NUTS(Europe)</title>
  <desc id="desc">Sequence diagram showing the current NUTS Europe data flow in ClimateMap.</desc>
  <defs>
    <style>
      .bg { fill: #f4f7fb; }
      .panel { fill: #ffffff; stroke: #d9e1ec; stroke-width: 2; rx: 28; }
      .panelTitle { font: 700 24px 'Segoe UI', Arial, sans-serif; fill: #1f2a44; }
      .participant { fill: #eef4ff; stroke: #5b8def; stroke-width: 2.5; rx: 18; }
      .participantAlt { fill: #edfdf8; stroke: #1f9d84; stroke-width: 2.5; rx: 18; }
      .participantStore { fill: #f7efff; stroke: #8b5cf6; stroke-width: 2.5; rx: 18; }
      .participantBackend { fill: #fff6ea; stroke: #d9822b; stroke-width: 2.5; rx: 18; }
      .participantUi { fill: #fff1ef; stroke: #e76f51; stroke-width: 2.5; rx: 18; }
      .name { font: 700 15px 'Segoe UI', Arial, sans-serif; fill: #1f2940; }
      .line { stroke: #b8c4d8; stroke-width: 2.5; stroke-dasharray: 10 10; }
      .arrow { stroke: #355fa9; stroke-width: 3.5; fill: none; }
      .arrowAlt { stroke: #1f9d84; stroke-width: 3.5; fill: none; }
      .arrowStore { stroke: #7a4ee0; stroke-width: 3.5; fill: none; }
      .step { font: 700 14px 'Segoe UI', Arial, sans-serif; fill: #3d4b63; }
      .small { font: 13px 'Segoe UI', Arial, sans-serif; fill: #617089; }
      .labelBg { fill: rgba(255, 255, 255, 0.94); stroke: #d9e1ec; stroke-width: 1.2; rx: 12; }
      .note { fill: #fff9e7; stroke: #e2b84a; stroke-width: 2; rx: 18; }
      .noteText { font: 14px 'Segoe UI', Arial, sans-serif; fill: #6b5521; }
    </style>
    <marker id="arrowBlue" markerWidth="14" markerHeight="14" refX="11" refY="7" orient="auto">
      <path d="M0 0 L14 7 L0 14 z" fill="#355fa9"/>
    </marker>
    <marker id="arrowGreen" markerWidth="14" markerHeight="14" refX="11" refY="7" orient="auto">
      <path d="M0 0 L14 7 L0 14 z" fill="#1f9d84"/>
    </marker>
    <marker id="arrowPurple" markerWidth="14" markerHeight="14" refX="11" refY="7" orient="auto">
      <path d="M0 0 L14 7 L0 14 z" fill="#7a4ee0"/>
    </marker>
  </defs>

  <rect class="bg" x="0" y="150" width="2560" height="700"/>
  <rect class="panel" x="60" y="150" width="2440" height="690"/>
  <text class="panelTitle" x="92" y="194">NUTS(Europe)</text>

  <g>
    <rect class="participant" x="100" y="220" width="220" height="62"/>
    <text class="name" x="142" y="258">ClimateMap</text>
    <line class="line" x1="210" y1="282" x2="210" y2="780"/>

    <rect class="participant" x="370" y="220" width="240" height="72"/>
    <text class="name" x="403" y="250">useClimateDataLoader</text>
    <text class="name" x="434" y="272">+ useEuropeNutsFlow</text>
    <line class="line" x1="490" y1="292" x2="490" y2="780"/>

    <rect class="participantAlt" x="660" y="220" width="220" height="62"/>
    <text class="name" x="698" y="258">modelOutputLoader</text>
    <line class="line" x1="770" y1="282" x2="770" y2="780"/>

    <rect class="participantAlt" x="940" y="220" width="220" height="62"/>
    <text class="name" x="980" y="258">nutsDataService</text>
    <line class="line" x1="1050" y1="282" x2="1050" y2="780"/>

    <rect class="participantBackend" x="1220" y="220" width="220" height="62"/>
    <text class="name" x="1276" y="258">/api/nuts_data</text>
    <line class="line" x1="1330" y1="282" x2="1330" y2="780"/>

    <rect class="participantAlt" x="1470" y="220" width="240" height="72"/>
    <text class="name" x="1530" y="250">RegionProcessor</text>
    <text class="name" x="1543" y="272">+ NutsConverter</text>
    <line class="line" x1="1590" y1="292" x2="1590" y2="780"/>

    <rect x="1712" y="208" width="624" height="96" rx="26" fill="#000000" opacity="0.2"/>

    <rect class="participantStore" x="1724" y="220" width="220" height="72"/>
    <text class="name" x="1748" y="250">MapDisplayedDataStore</text>
    <text class="small" x="1772" y="272">NUTS layer output</text>
    <line class="line" x1="1834" y1="292" x2="1834" y2="780"/>

    <rect class="participantUi" x="1960" y="220" width="230" height="72"/>
    <text class="name" x="2040" y="250">Output</text>
    <text class="small" x="1998" y="272">UI / render / legend extremes</text>
    <line class="line" x1="2075" y1="292" x2="2075" y2="780"/>
  </g>

  <g>
    <path class="arrow" marker-end="url(#arrowBlue)" d="M210 340 L490 340"/>
    <rect class="labelBg" x="252" y="316" width="380" height="24"/>
    <text class="step" x="288" y="330">1. Model, date, or mode(NUTS) changed</text>

    <path class="arrowStore" marker-end="url(#arrowPurple)" d="M490 400 L1890 400"/>
    <rect class="labelBg" x="830" y="376" width="218" height="24"/>
    <text class="step" x="862" y="390">2. Manage loading state</text>

    <path class="arrowAlt" marker-end="url(#arrowGreen)" d="M490 460 L770 460"/>
    <rect class="labelBg" x="522" y="436" width="170" height="24"/>
    <text class="step" x="538" y="450">3. loadEuropeNutsData()</text>

    <path class="arrowAlt" marker-end="url(#arrowGreen)" d="M770 520 L1050 520"/>
    <rect class="labelBg" x="816" y="496" width="160" height="24"/>
    <text class="step" x="832" y="510">4. fetchNutsData()</text>

    <path class="arrowAlt" marker-end="url(#arrowGreen)" d="M1050 580 L1330 580"/>
    <rect class="labelBg" x="1088" y="556" width="170" height="24"/>
    <text class="step" x="1108" y="570">5. request NUTS3 values</text>

    <path class="arrowAlt" marker-end="url(#arrowGreen)" d="M490 640 L1590 640"/>
    <rect class="labelBg" x="860" y="616" width="312" height="24"/>
    <text class="step" x="892" y="630">6. build merged NUTS GeoJSON</text>

    <rect class="note" x="1268" y="544" width="450" height="72"/>
    <text class="noteText" x="1296" y="572">loadNutsGeoJSON() -&gt; /api/nuts_regions?grid_resolution=NUTS3</text>
    <text class="noteText" x="1296" y="596">merge Region GeoJSON data with NUTS intensity values</text>

    <path class="arrowStore" marker-end="url(#arrowPurple)" d="M1590 700 L1834 700"/>
    <rect class="labelBg" x="1600" y="666" width="304" height="48"/>
    <text class="step" x="1624" y="686">7. write merged NUTS GeoJSON</text>
    <text class="small" x="1624" y="704">setProcessedEuropeNutsRegions()</text>

    <path class="arrowStore" marker-end="url(#arrowPurple)" d="M1590 744 L2075 744"/>
    <rect class="labelBg" x="1710" y="716" width="344" height="48"/>
    <text class="step" x="1734" y="736">8. set local legend extremes</text>
    <text class="small" x="1728" y="754">setProcessedDataExtremes()</text>

    <rect class="note" x="1638" y="770" width="526" height="56"/>
    <text class="noteText" x="1670" y="804">If empty or API_ERROR: map UI state is set and NoDataModal opens.</text>
  </g>
</svg>
